<?xml version="1.0" encoding="utf-8"?>
<!-- Generator: Adobe Illustrator 28.4.1, SVG Export Plug-In . SVG Version: 6.00 Build 0)  -->
<svg version="1.1" xmlns="http://www.w3.org/2000/svg" xmlns:xlink="http://www.w3.org/1999/xlink" x="0px" y="0px"
	 viewBox="0 0 648.41 457.32" style="enable-background:new 0 0 648.41 457.32;" xml:space="preserve">
<style type="text/css">
	.st0{fill:#FFFFFF;}
	.st1{font-family:'MyriadPro-Regular';}
	.st2{font-size:9px;}
</style>
<g id="Layer_2">
	<path d="M56.29,88.05c2.01,6.62,6.26,16.99,15.55,26.34c3.63,3.65,16.59,16.71,34.24,16.82c7.52,0.05,7.64-2.28,19.87-5.2
		c5.76-1.38,27.38-6.03,51.67-0.61c14.22,3.18,15.36,6.69,25.1,6.21c14.37-0.7,24.69-8.97,28.4-12.02
		c13.67-11.25,17.94-25.89,19.26-31.49c2.39,4.1,5.62,10.8,5.61,19.3c-0.01,10.51-4.68,24.21-22.43,38.17h8.87
		c0,0,11.62,17.43-13.45,25.07l-25.38,1.53c0,0-1.83,0.31-1.83,2.45s0,24.15,0,24.15s-38.22,5.5-18.04,36.38l-15.29,28.43
		c0,0-12.84-9.78-29.66,0l-15.59-27.52c0,0,22.01-29.66-17.73-36.99l-0.31-24.46c0,0-0.31-3.36-5.5-3.06
		c-5.2,0.31-20.18-0.92-20.18-0.92s-21.4-0.92-15.9-24.76h11.92c-2.37-1.57-23.95-16.41-23.64-40.08
		C51.97,98.45,54.15,92.37,56.29,88.05z"/>
	<path d="M307.12,92.57c0,0,2.56-5.97,6.48,0l-0.34,171.02c0,0-1.88,5.83-6.14,0V92.57z"/>
</g>
<g id="Layer_1">
	<path class="st0" d="M166.01,185.94c0,0,3.67-15.95,18.65-10.11C184.66,175.82,182.83,188.08,166.01,185.94z"/>
	<path class="st0" d="M139.04,185.94c0,0-3.67-15.95-18.65-10.11C120.39,175.82,122.22,188.08,139.04,185.94z"/>
	<path d="M426.29,154.28c0.93,2.95,2.72,7.42,6.31,11.93c1.46,1.83,4.87,5.76,11.76,9.72c15.2,8.72,32.14,8.88,35.63,8.87
		c1.96-0.01,20.09-0.28,36.31-9.55c5.76-3.29,8.85-6.33,10.74-8.52c4.44-5.14,6.5-10.46,7.5-13.81c0-15,0-30,0-45.01
		c0,0,34.44,4.77,61.37,21.82c0,0-1.02,56.94-115.93,61.2c0,0-110.3-3.41-115.59-61.03c0,0,23.02-15.17,62.23-21.99L426.29,154.28z"
		/>
	<path d="M426.29,197.93c0.93-2.95,2.72-7.42,6.31-11.93c1.46-1.83,4.87-5.76,11.76-9.72c15.2-8.72,32.14-8.88,35.63-8.87
		c1.96,0.01,20.09,0.28,36.31,9.55c5.76,3.29,8.85,6.33,10.74,8.52c4.44,5.14,6.5,10.46,7.5,13.81c0,15,0,30,0,45.01
		c0,0,34.44-4.77,61.37-21.82c0,0-1.02-56.94-115.93-61.2c0,0-110.3,3.41-115.59,61.03c0,0,23.02,15.17,62.23,21.99L426.29,197.93z"
		/>
	<polygon points="59.56,312.23 59.56,354.45 84.45,354.45 92,347.46 92,337.11 88.08,333.34 90.88,329.56 90.68,318.87 
		83.38,312.23 	"/>
	<polygon class="st0" points="69.24,320.66 69.24,328.55 79.36,328.55 81,327.06 81,322.29 79.21,320.66 	"/>
	<polygon class="st0" points="69.9,337.55 69.9,345.45 80.02,345.45 81.66,343.96 81.66,339.19 79.88,337.55 	"/>
	<polygon points="104.08,312.23 104.08,347.16 111.23,354.45 133.11,354.45 140.56,347.01 140.56,312.23 130.43,312.23 
		130.58,342.25 128.65,345.45 115.99,345.45 114.2,343.73 114.05,312.23 	"/>
	<rect x="153.94" y="312.23" width="10" height="42.22"/>
	<polygon points="178.38,312.23 178.38,354.45 208.45,354.45 208.45,346.27 187.91,345.45 187.91,312.23 	"/>
	<polygon points="217.54,312.23 217.54,354.45 245.68,354.45 252.97,346.71 252.97,319.02 245.23,312.23 	"/>
	<rect x="227.07" y="320.66" class="st0" width="14.74" height="24.79"/>
	<polygon points="271.73,320.66 271.73,326.76 278.73,326.76 278.73,347.31 286.62,347.31 286.62,326.61 293.92,326.61 
		293.92,320.66 	"/>
	<polygon points="302.7,320.66 302.7,347.31 309.7,347.31 309.7,336.74 317.59,336.74 317.59,347.31 325.04,347.31 325.04,320.66 
		318.34,320.66 318.19,329.59 310.36,329.74 310.36,320.66 	"/>
	<polygon points="418.23,312.23 418.23,354.45 448.33,354.45 448.33,345.49 428.19,345.02 427.71,338.41 442.4,337.7 442.17,328.27 
		428.42,328.27 428.19,321.43 447.38,320.95 447.38,312.23 	"/>
	<polygon points="373.48,312.04 373.48,354.26 398.37,354.26 405.92,347.27 405.92,336.92 402.01,333.15 404.8,329.37 404.6,318.68 
		397.3,312.04 	"/>
	<polygon class="st0" points="383.82,337.55 383.82,345.45 393.95,345.45 395.58,343.96 395.58,339.19 393.8,337.55 	"/>
	<polygon class="st0" points="383.12,320.66 383.12,328.55 393.24,328.55 394.88,327.06 394.88,322.29 393.09,320.66 	"/>
	<polygon points="335.81,321.03 335.81,347.68 354.72,347.68 354.72,342.02 342.06,341.73 341.76,337.56 351,337.11 350.85,331.15 
		342.21,331.15 342.06,326.84 354.12,326.54 354.12,321.03 	"/>
	<polygon points="460.53,313.24 460.53,355.47 486.78,355.47 487.26,345.45 470.06,346.46 470.06,313.24 	"/>
	<rect x="497.19" y="312.04" width="10" height="42.22"/>
	<polygon points="521.78,311.94 521.78,354.16 551.87,354.16 551.87,345.2 531.73,344.73 531.25,338.12 545.95,337.41 
		545.71,327.98 531.97,327.98 531.73,321.14 550.92,320.67 550.92,311.94 	"/>
	<polygon points="564.16,312.23 564.16,354.45 573.49,354.45 573.63,338.41 586.57,339.35 587.1,328.55 574.35,328.55 
		574.11,321.43 593.3,320.95 593.3,312.23 	"/>
	<text transform="matrix(1 0 0 1 246.7608 145.5381)" class="st1 st2">TM</text>
</g>
</svg>
